<svg xmlns="http://www.w3.org/2000/svg" aria-hidden="true" focusable="false">
  <defs>
    <!-- Icons adapted from Heroicons (MIT License) https://github.com/tailwindlabs/heroicons -->
    <symbol id="poi-finance" viewBox="0 0 24 24" fill="currentColor">
      <path d="M12 7.5a2.25 2.25 0 1 0 0 4.5 2.25 2.25 0 0 0 0-4.5Z" />
      <path fill-rule="evenodd" clip-rule="evenodd" d="M1.5 4.875C1.5 3.839 2.34 3 3.375 3h17.25c1.035 0 1.875.84 1.875 1.875v9.75c0 1.036-.84 1.875-1.875 1.875H3.375A1.875 1.875 0 0 1 1.5 14.625v-9.75ZM8.25 9.75a3.75 3.75 0 1 1 7.5 0 3.75 3.75 0 0 1-7.5 0ZM18.75 9a.75.75 0 0 0-.75.75v.008c0 .414.336.75.75.75h.008a.75.75 0 0 0 .75-.75V9.75a.75.75 0 0 0-.75-.75h-.008ZM4.5 9.75A.75.75 0 0 1 5.25 9h.008a.75.75 0 0 1 .75.75v.008a.75.75 0 0 1-.75.75H5.25a.75.75 0 0 1-.75-.75V9.75Z" />
      <path d="M2.25 18a.75.75 0 0 0 0 1.5c5.4 0 10.63.722 15.6 2.075 1.19.324 2.4-.558 2.4-1.82V18.75a.75.75 0 0 0-.75-.75H2.25Z" />
    </symbol>
    <symbol id="poi-hr" viewBox="0 0 24 24" fill="currentColor">
      <path d="M4.5 6.375a4.125 4.125 0 1 1 8.25 0 4.125 4.125 0 0 1-8.25 0ZM14.25 8.625a3.375 3.375 0 1 1 6.75 0 3.375 3.375 0 0 1-6.75 0ZM1.5 19.125a7.125 7.125 0 0 1 14.25 0v.003l-.001.119a.75.75 0 0 1-.363.63 13.067 13.067 0 0 1-6.761 1.873c-2.472 0-4.786-.684-6.76-1.873a.75.75 0 0 1-.364-.63l-.001-.122ZM17.25 19.128l-.001.144a2.25 2.25 0 0 1-.233.96 10.088 10.088 0 0 0 5.06-1.01.75.75 0 0 0 .42-.643 4.875 4.875 0 0 0-6.957-4.611 8.586 8.586 0 0 1 1.71 5.157v.003Z" />
    </symbol>
    <symbol id="poi-sales" viewBox="0 0 24 24" fill="currentColor">
      <path fill-rule="evenodd" clip-rule="evenodd" d="M2.25 2.25a.75.75 0 0 0 0 1.5H3v10.5a3 3 0 0 0 3 3h1.21l-1.172 3.513a.75.75 0 0 0 1.424.474l.329-.987h8.418l.33.987a.75.75 0 0 0 1.422-.474l-1.17-3.513H18a3 3 0 0 0 3-3V3.75h.75a.75.75 0 0 0 0-1.5H2.25Zm6.54 15h6.42l.5 1.5H8.29l.5-1.5Zm8.085-8.995a.75.75 0 1 0-.75-1.299 12.81 12.81 0 0 0-3.558 3.05L11.03 8.47a.75.75 0 0 0-1.06 0l-3 3a.75.75 0 1 0 1.06 1.06l2.47-2.47 1.617 1.618a.75.75 0 0 0 1.146-.102 11.312 11.312 0 0 1 3.612-3.321Z" />
    </symbol>
    <symbol id="poi-operations" viewBox="0 0 24 24" fill="currentColor">
      <path fill-rule="evenodd" clip-rule="evenodd" d="M11.078 2.25c-.917 0-1.699.663-1.85 1.567L9.05 4.889c-.02.12-.115.26-.297.348a7.493 7.493 0 0 0-.986.57c-.166.115-.334.126-.45.083L6.3 5.508a1.875 1.875 0 0 0-2.282.819l-.922 1.597a1.875 1.875 0 0 0 .432 2.385l.84.692c.095.078.17.229.154.43a7.598 7.598 0 0 0 0 1.139c.015.2-.059.352-.153.43l-.841.692a1.875 1.875 0 0 0-.432 2.385l.922 1.597a1.875 1.875 0 0 0 2.282.818l1.019-.382c.115-.043.283-.031.45.082.312.214.641.405.985.57.182.088.277.228.297.35l.178 1.071c.151.904.933 1.567 1.85 1.567h1.844c.916 0 1.699-.663 1.85-1.567l.178-1.072c.02-.12.114-.26.297-.349.344-.165.673-.356.985-.57.167-.114.335-.125.45-.082l1.02.382a1.875 1.875 0 0 0 2.28-.819l.923-1.597a1.875 1.875 0 0 0-.432-2.385l-.84-.692c-.095-.078-.17-.229-.154-.43a7.614 7.614 0 0 0 0-1.139c-.016-.2.059-.352.153-.43l.84-.692c.708-.582.891-1.59.433-2.385l-.922-1.597a1.875 1.875 0 0 0-2.282-.818l-1.02.382c-.114.043-.282.031-.449-.083a7.49 7.49 0 0 0-.985-.57c-.183-.087-.277-.227-.297-.348l-.179-1.072a1.875 1.875 0 0 0-1.85-1.567h-1.843ZM12 15.75a3.75 3.75 0 1 0 0-7.5 3.75 3.75 0 0 0 0 7.5Z" />
    </symbol>
  </defs>
</svg>
