<?xml version="1.0" encoding="UTF-8"?>
<!--
  Heroicons v2.0. Icons are MIT licensed by Tailwind Labs (https://github.com/tailwindlabs/heroicons).
  Stored locally to keep the application fully offline-capable.
-->
<svg xmlns="http://www.w3.org/2000/svg" aria-hidden="true" style="display:none">
  <defs>
    <symbol id="icon-default" viewBox="0 0 24 24" fill="currentColor">
      <path fill-rule="evenodd" d="m11.54 22.351.07.04.028.016a.76.76 0 0 0 .723 0l.028-.015.071-.041a16.975 16.975 0 0 0 1.144-.742 19.58 19.58 0 0 0 2.683-2.282c1.944-1.99 3.963-4.98 3.963-8.827a8.25 8.25 0 0 0-16.5 0c0 3.846 2.02 6.837 3.963 8.827a19.58 19.58 0 0 0 2.682 2.282 16.975 16.975 0 0 0 1.145.742ZM12 13.5a3 3 0 1 0 0-6 3 3 0 0 0 0 6Z" clip-rule="evenodd"/>
    </symbol>
    <symbol id="icon-finance" viewBox="0 0 24 24" fill="currentColor">
      <path d="M11.584 2.376a.75.75 0 0 1 .832 0l9 6a.75.75 0 1 1-.832 1.248L12 3.901 3.416 9.624a.75.75 0 0 1-.832-1.248l9-6Z"/>
      <path fill-rule="evenodd" d="M20.25 10.332v9.918H21a.75.75 0 0 1 0 1.5H3a.75.75 0 0 1 0-1.5h.75v-9.918a.75.75 0 0 1 .634-.74A49.109 49.109 0 0 1 12 9c2.59 0 5.134.202 7.616.592a.75.75 0 0 1 .634.74Zm-7.5 2.418a.75.75 0 0 0-1.5 0v6.75a.75.75 0 0 0 1.5 0v-6.75Zm3-.75a.75.75 0 0 1 .75.75v6.75a.75.75 0 0 1-1.5 0v-6.75a.75.75 0 0 1 .75-.75ZM9 12.75a.75.75 0 0 0-1.5 0v6.75a.75.75 0 0 0 1.5 0v-6.75Z" clip-rule="evenodd"/>
      <path d="M12 7.875a1.125 1.125 0 1 0 0-2.25 1.125 1.125 0 0 0 0 2.25Z"/>
    </symbol>
    <symbol id="icon-hr" viewBox="0 0 24 24" fill="currentColor">
      <path d="M4.5 6.375a4.125 4.125 0 1 1 8.25 0 4.125 4.125 0 0 1-8.25 0ZM14.25 8.625a3.375 3.375 0 1 1 6.75 0 3.375 3.375 0 0 1-6.75 0ZM1.5 19.125a7.125 7.125 0 0 1 14.25 0v.003l-.001.119a.75.75 0 0 1-.363.63 13.067 13.067 0 0 1-6.761 1.873c-2.472 0-4.786-.684-6.76-1.873a.75.75 0 0 1-.364-.63l-.001-.122ZM17.25 19.128l-.001.144a2.25 2.25 0 0 1-.233.96 10.088 10.088 0 0 0 5.06-1.01.75.75 0 0 0 .42-.643 4.875 4.875 0 0 0-6.957-4.611 8.586 8.586 0 0 1 1.71 5.157v.003Z"/>
    </symbol>
    <symbol id="icon-sales" viewBox="0 0 24 24" fill="currentColor">
      <path d="M18.375 2.25c-1.035 0-1.875.84-1.875 1.875v15.75c0 1.035.84 1.875 1.875 1.875h.75c1.035 0 1.875-.84 1.875-1.875V4.125c0-1.036-.84-1.875-1.875-1.875h-.75ZM9.75 8.625c0-1.036.84-1.875 1.875-1.875h.75c1.036 0 1.875.84 1.875 1.875v11.25c0 1.035-.84 1.875-1.875 1.875h-.75a1.875 1.875 0 0 1-1.875-1.875V8.625ZM3 13.125c0-1.036.84-1.875 1.875-1.875h.75c1.036 0 1.875.84 1.875 1.875v6.75c0 1.035-.84 1.875-1.875 1.875h-.75A1.875 1.875 0 0 1 3 19.875v-6.75Z"/>
    </symbol>
    <symbol id="icon-operations" viewBox="0 0 24 24" fill="currentColor">
      <path fill-rule="evenodd" d="M11.078 2.25c-.917 0-1.699.663-1.85 1.567L9.05 4.889c-.02.12-.115.26-.297.348a7.493 7.493 0 0 0-.985.57c-.166.115-.334.126-.45.083L6.3 5.508a1.875 1.875 0 0 0-2.282.819l-.922 1.597a1.875 1.875 0 0 0 .432 2.385l.84.692c.095.078.17.229.154.43a7.598 7.598 0 0 0 0 1.139c.015.2-.059.352-.153.43l-.841.692a1.875 1.875 0 0 0-.432 2.385l.922 1.597a1.875 1.875 0 0 0 2.282.818l1.019-.382c.115-.043.283-.031.45.082.312.214.641.405.985.57.182.088.277.228.297.35l.178 1.071c.151.904.933 1.567 1.85 1.567h1.844c.916 0 1.699-.663 1.85-1.567l.178-1.072c.02-.12.114-.26.297-.349.344-.165.673-.356.985-.57.167-.114.335-.125.45-.082l1.02.382a1.875 1.875 0 0 0 2.28-.819l.923-1.597a1.875 1.875 0 0 0-.432-2.385l-.84-.692c-.095-.078-.17-.229-.154-.43a7.614 7.614 0 0 0 0-1.139c-.016-.2.059-.352.153-.43l.84-.692c.708-.582.891-1.59.433-2.385l-.922-1.597a1.875 1.875 0 0 0-2.282-.818l-1.02.382c-.114.043-.282.031-.449-.083a7.49 7.49 0 0 0-.985-.57c-.183-.087-.277-.227-.297-.348l-.179-1.072a1.875 1.875 0 0 0-1.85-1.567h-1.843ZM12 15.75a3.75 3.75 0 1 0 0-7.5 3.75 3.75 0 0 0 0 7.5Z" clip-rule="evenodd"/>
    </symbol>
  </defs>
</svg>
