<?xml version="1.0" encoding="UTF-8" ?>
<!DOCTYPE svg PUBLIC "-//W3C//DTD SVG 1.1//EN" "http://www.w3.org/Graphics/SVG/1.1/DTD/svg11.dtd">
<svg width="600pt" height="600pt" viewBox="0 0 600 600" version="1.1" xmlns="http://www.w3.org/2000/svg">
<g id="#044284ff">
<path fill="#044284" opacity="1.00" d=" M 0.00 0.00 L 600.00 0.00 L 600.00 600.00 L 0.00 600.00 L 0.00 0.00 M 284.65 166.91 C 270.01 169.07 255.72 173.69 242.73 180.82 C 218.47 193.96 198.84 215.12 186.86 239.92 C 176.58 261.22 171.69 285.22 173.09 308.82 C 174.76 348.64 194.48 387.55 226.38 411.62 C 245.78 426.45 269.57 435.58 293.98 437.00 C 313.91 438.33 334.17 434.70 352.39 426.47 C 382.01 413.31 405.88 388.41 418.88 358.82 C 437.90 316.34 434.19 264.38 408.70 225.34 C 392.01 199.28 365.97 179.10 336.12 170.58 C 319.47 165.72 301.82 164.65 284.65 166.91 M 105.07 225.36 C 93.71 249.02 82.96 272.98 71.77 296.73 C 70.85 298.82 69.25 301.17 70.73 303.42 C 82.22 328.11 93.40 352.94 105.03 377.57 C 115.32 377.42 125.61 377.61 135.91 377.47 C 126.83 355.07 121.48 331.07 121.13 306.88 C 120.23 300.92 121.49 294.96 121.37 288.98 C 122.55 267.19 127.70 245.67 135.92 225.48 C 125.63 225.34 115.35 225.55 105.07 225.36 M 147.29 225.39 C 125.84 273.05 125.98 329.65 147.10 377.40 C 158.81 377.54 170.52 377.38 182.22 377.38 C 164.54 346.40 158.25 309.24 164.64 274.16 C 167.49 257.02 174.00 240.74 182.10 225.46 C 170.50 225.28 158.89 225.41 147.29 225.39 M 420.81 225.46 C 425.15 233.89 429.47 242.37 432.44 251.41 C 446.84 292.58 442.43 339.78 420.67 377.59 C 432.37 377.62 444.07 377.61 455.77 377.60 C 477.07 329.86 477.16 273.17 455.79 225.45 C 444.13 225.43 432.47 225.41 420.81 225.46 M 467.10 225.50 C 475.94 247.26 481.30 270.55 481.83 294.06 C 482.82 301.38 481.61 308.71 481.56 316.05 C 480.12 337.12 475.05 357.90 467.09 377.45 C 477.44 377.57 487.80 377.54 498.15 377.47 C 509.55 352.70 520.97 327.94 532.37 303.17 C 533.18 301.80 532.96 300.22 532.23 298.87 C 520.84 274.42 509.51 249.93 498.15 225.46 C 487.80 225.44 477.45 225.37 467.10 225.50 Z" />
<path fill="#044284" opacity="1.00" d=" M 284.54 199.85 C 302.99 196.55 322.44 198.69 339.57 206.40 C 360.31 215.55 377.41 232.27 387.73 252.40 C 397.46 271.21 401.22 292.95 398.79 313.96 C 396.07 338.37 384.63 361.82 366.59 378.56 C 351.83 392.49 332.59 401.69 312.40 403.97 C 293.87 406.17 274.71 402.67 258.18 394.01 C 236.84 382.94 219.98 363.79 211.17 341.47 C 202.05 318.91 201.13 293.22 208.16 269.96 C 214.35 249.47 226.96 230.92 244.00 217.94 C 255.86 208.86 269.84 202.53 284.54 199.85 M 243.35 225.40 C 243.34 276.11 243.34 326.82 243.38 377.53 C 257.13 377.50 270.89 377.52 284.64 377.52 C 284.70 353.64 284.68 329.76 284.65 305.88 C 284.36 304.46 285.30 303.31 285.85 302.12 C 290.53 313.75 296.28 324.93 301.34 336.41 C 307.80 350.03 313.75 363.98 320.46 377.42 C 334.16 377.64 347.87 377.48 361.57 377.49 C 349.94 352.25 338.27 327.03 326.47 301.87 C 338.08 276.35 349.92 250.94 361.61 225.45 C 347.82 225.38 334.03 225.41 320.24 225.47 C 309.16 249.39 298.10 273.32 286.94 297.21 C 286.78 297.81 286.45 299.01 286.29 299.61 C 285.85 299.84 284.98 300.30 284.54 300.52 C 284.84 275.50 284.60 250.46 284.66 225.43 C 270.89 225.43 257.12 225.42 243.35 225.40 Z" />
</g>
<g id="#fcfefcff">
</g>
</svg>
