<?xml version="1.0" encoding="UTF-8" ?>
<!DOCTYPE svg PUBLIC "-//W3C//DTD SVG 1.1//EN" "http://www.w3.org/Graphics/SVG/1.1/DTD/svg11.dtd">
<svg width="1024pt" height="1024pt" viewBox="0 0 1024 1024" version="1.1" xmlns="http://www.w3.org/2000/svg">
<g id="#003e91ff">
<path fill="#003e91" opacity="1.00" d=" M 0.00 0.00 L 1024.00 0.00 L 1024.00 1024.00 L 0.00 1024.00 L 0.00 0.00 M 481.00 286.20 C 443.18 292.39 407.36 309.38 378.11 334.07 C 370.79 339.69 364.78 346.76 358.10 353.09 C 344.12 368.57 331.59 385.51 322.28 404.23 C 309.46 428.80 300.84 455.71 297.79 483.29 C 297.63 483.66 297.30 484.39 297.14 484.75 C 296.10 498.76 293.95 512.86 295.91 526.90 C 295.85 538.20 298.27 549.29 299.76 560.45 C 300.39 564.57 301.39 568.64 302.54 572.66 C 304.67 579.85 305.96 587.31 309.00 594.21 C 319.33 624.00 335.84 651.62 357.04 674.96 C 361.92 679.41 366.54 684.13 371.05 688.96 C 386.10 702.43 402.63 714.42 420.85 723.26 C 438.25 732.22 457.11 738.13 476.21 742.17 C 490.38 744.33 504.68 746.31 519.05 745.95 C 542.19 745.18 565.25 740.96 587.06 733.14 C 605.62 726.15 623.25 716.78 639.36 705.20 C 678.90 676.67 708.54 634.89 723.29 588.48 C 729.85 568.97 733.17 548.50 734.77 528.02 C 734.92 520.01 734.79 512.00 734.89 503.99 C 733.22 479.17 728.83 454.37 719.94 431.06 C 716.38 419.73 710.54 409.35 705.33 398.74 C 701.99 392.27 697.87 386.28 693.75 380.29 C 687.94 370.72 680.40 362.40 673.09 353.98 C 668.31 348.41 663.00 343.31 657.39 338.59 C 635.68 319.18 610.27 303.87 582.70 294.45 C 576.23 292.64 569.91 290.31 563.35 288.85 C 552.27 286.89 541.22 284.53 529.96 283.90 C 513.63 282.13 497.16 283.64 481.00 286.20 M 180.19 385.15 C 177.58 388.79 176.13 393.11 173.96 397.01 C 165.55 415.02 157.21 433.04 148.85 451.07 C 147.06 456.14 143.65 460.48 142.27 465.71 C 134.79 480.54 128.33 495.88 121.04 510.81 C 118.52 515.69 122.46 520.19 124.47 524.41 C 141.40 561.17 158.22 598.00 175.26 634.70 C 176.93 637.74 178.40 640.89 179.58 644.16 C 194.47 644.35 209.36 644.14 224.26 644.28 C 224.68 644.01 225.51 643.47 225.93 643.20 C 227.70 643.32 229.46 643.45 231.24 643.58 C 221.54 620.29 214.58 595.81 210.72 570.88 C 210.56 570.50 210.24 569.74 210.08 569.36 C 209.27 561.24 207.48 553.23 207.28 545.04 C 206.09 536.42 207.04 527.70 205.86 519.09 C 204.91 511.71 207.07 504.39 206.49 497.01 C 206.82 483.96 208.30 470.96 210.53 458.10 C 213.12 442.74 216.72 427.53 221.32 412.65 C 223.99 403.20 227.92 394.22 231.05 384.93 C 214.10 385.06 197.11 384.46 180.19 385.15 M 252.26 384.90 C 248.72 390.65 246.67 397.10 244.32 403.39 C 235.43 426.84 229.64 451.42 226.86 476.33 C 226.68 476.69 226.32 477.40 226.15 477.75 C 226.06 483.53 225.04 489.25 224.97 495.04 C 223.89 503.31 224.54 511.65 224.33 519.96 C 224.01 530.11 225.80 540.17 226.12 550.29 C 226.35 550.66 226.81 551.40 227.04 551.77 C 227.02 553.59 227.01 555.41 227.00 557.24 C 227.21 557.61 227.63 558.35 227.84 558.73 C 228.90 569.71 230.72 580.67 233.93 591.25 C 237.90 609.18 243.96 626.63 251.50 643.38 C 270.93 643.44 290.37 643.31 309.80 643.47 C 303.72 631.28 297.26 619.21 292.72 606.32 C 287.79 592.60 283.71 578.55 280.98 564.22 C 279.78 555.15 277.64 546.20 277.33 537.04 C 277.03 532.01 276.34 527.01 276.46 521.98 C 276.70 512.64 275.96 503.28 277.16 493.99 C 277.65 481.66 280.17 469.55 282.37 457.45 C 284.86 446.98 287.73 436.59 291.43 426.48 C 296.24 412.03 303.28 398.48 310.20 384.97 C 290.89 384.85 271.57 384.85 252.26 384.90 M 718.88 384.96 C 721.32 389.60 723.58 394.32 726.02 398.96 C 749.06 445.33 757.45 498.69 750.40 549.95 C 746.98 575.52 739.75 600.53 729.15 624.04 C 725.23 630.65 722.76 638.05 718.30 644.34 C 738.00 644.01 757.71 644.49 777.41 644.11 C 785.39 626.07 791.71 607.31 796.01 588.06 C 799.38 576.21 801.00 563.93 802.17 551.70 C 802.35 551.34 802.70 550.61 802.88 550.25 C 803.28 541.82 804.46 533.44 804.81 525.01 C 804.69 517.68 804.86 510.34 804.79 503.01 C 803.95 494.01 803.65 484.96 802.41 476.00 C 800.74 466.38 799.86 456.63 797.60 447.13 C 792.97 425.81 786.38 404.87 777.28 385.03 C 757.82 384.62 738.35 384.91 718.88 384.96 M 797.74 384.92 C 800.01 390.44 801.97 396.08 804.26 401.59 C 810.84 421.70 816.55 442.22 819.22 463.26 C 819.39 463.63 819.73 464.38 819.89 464.75 C 820.31 471.54 821.68 478.23 821.92 485.04 C 823.02 492.33 822.28 499.72 823.32 507.01 C 824.36 516.38 822.18 525.67 822.68 535.04 C 822.39 543.04 821.44 551.01 820.37 558.95 C 819.75 562.37 819.30 565.82 818.98 569.29 C 818.84 569.71 818.56 570.56 818.42 570.99 C 817.31 580.05 815.40 588.98 812.85 597.74 C 811.12 606.88 807.67 615.53 805.35 624.52 C 802.71 630.78 800.72 637.31 797.85 643.49 C 801.59 643.23 805.36 643.33 809.09 643.81 C 815.34 644.68 821.65 643.97 827.94 644.24 C 835.34 644.63 842.64 642.76 850.05 643.38 C 869.00 601.40 888.58 559.72 907.68 517.81 C 908.43 515.80 909.56 513.50 908.44 511.40 C 900.91 496.33 894.45 480.74 886.90 465.67 C 885.28 460.44 881.99 455.94 880.18 450.78 C 869.97 428.82 859.66 406.92 849.62 384.88 C 832.32 384.86 815.03 384.81 797.74 384.92 Z" />
<path fill="#003e91" opacity="1.00" d=" M 485.26 340.62 C 496.42 338.96 507.72 337.64 519.02 337.95 C 531.25 339.05 543.67 339.66 555.52 343.18 C 604.01 355.72 645.05 391.98 665.62 437.37 C 676.92 462.21 682.93 489.66 681.90 516.99 C 682.52 531.43 679.98 545.77 676.79 559.80 C 673.52 572.35 669.44 584.79 663.16 596.19 C 658.04 606.86 651.97 617.16 644.43 626.32 C 621.87 655.98 588.96 677.70 552.67 686.40 C 542.41 689.24 531.76 690.11 521.19 690.82 C 513.06 691.96 504.96 690.27 496.84 690.02 C 477.13 687.82 457.72 682.19 440.20 672.83 C 413.60 659.19 391.11 637.98 375.04 612.83 C 365.21 596.61 357.06 579.21 352.52 560.72 C 349.92 548.64 347.18 536.46 347.19 524.03 C 347.24 519.02 347.26 514.01 347.24 509.00 C 346.92 497.94 348.46 486.90 350.85 476.12 C 355.09 454.37 363.79 433.57 375.78 414.97 C 400.29 376.89 440.42 348.53 485.26 340.62 M 412.12 384.86 C 412.05 471.37 412.14 557.88 412.07 644.39 C 432.35 644.17 452.64 644.40 472.93 644.30 C 473.02 596.96 472.68 549.62 473.17 502.30 C 476.83 511.45 480.29 520.69 484.30 529.71 C 491.32 548.23 498.83 566.55 505.91 585.05 C 509.38 593.84 513.82 602.31 516.03 611.55 C 521.78 599.35 525.82 586.42 531.04 573.98 C 535.37 561.81 540.47 549.94 544.93 537.82 C 549.79 525.69 554.92 513.65 558.75 501.14 C 559.44 518.07 558.93 535.03 559.10 551.97 C 559.08 582.75 559.13 613.52 559.07 644.29 C 578.71 644.43 598.35 644.26 617.98 644.34 C 617.91 557.88 618.08 471.43 617.92 384.97 C 595.22 384.66 572.51 385.03 549.81 384.82 C 542.25 401.75 536.71 419.48 529.67 436.62 C 524.98 448.50 520.76 460.57 515.99 472.41 C 505.77 443.10 494.10 414.30 484.11 384.91 C 460.11 384.80 436.11 384.90 412.12 384.86 Z" />
</g>
<g id="#000000ff">
</g>
</svg>
